<?xml version="1.0" encoding="UTF-8"?>
<!DOCTYPE svg PUBLIC "-//W3C//DTD SVG 1.1//EN" "http://www.w3.org/Graphics/SVG/1.1/DTD/svg11.dtd">
<svg xmlns="http://www.w3.org/2000/svg" version="1.1" width="1080px" height="1080px" style="shape-rendering:geometricPrecision; text-rendering:geometricPrecision; image-rendering:optimizeQuality; fill-rule:evenodd; clip-rule:evenodd" xmlns:xlink="http://www.w3.org/1999/xlink">
<g><path style="opacity:0.987" fill="#b1cbb9" d="M 775.5,74.5 C 777.117,75.5893 777.95,77.256 778,79.5C 786.755,133.596 788.755,187.929 784,242.5C 781.381,270.705 771.881,296.205 755.5,319C 732.133,326.067 711.467,337.733 693.5,354C 669.822,375.504 648.489,399.004 629.5,424.5C 614.956,372.438 609.456,319.438 613,265.5C 615.002,242.495 622.002,221.162 634,201.5C 646.295,183.527 660.462,167.027 676.5,152C 688.648,141.429 700.982,131.095 713.5,121C 734.414,105.723 755.08,90.2226 775.5,74.5 Z"/></g>
<g><path style="opacity:0.994" fill="#b1cab9" d="M 622.5,431.5 C 609.121,427.65 595.455,426.484 581.5,428C 555.405,435.381 530.738,446.048 507.5,460C 485.827,473.168 464.494,486.834 443.5,501C 423.167,512.667 402.833,524.333 382.5,536C 350.692,553.427 316.692,561.427 280.5,560C 276.339,559.835 272.506,558.668 269,556.5C 266.629,551.061 265.963,545.394 267,539.5C 268.998,529.841 271.998,520.507 276,511.5C 278.498,493.314 270.498,483.314 252,481.5C 243.741,482.296 237.074,485.962 232,492.5C 227.851,497.468 224.351,502.802 221.5,508.5C 221.5,422.833 221.5,337.167 221.5,251.5C 349.833,251.5 478.167,251.5 606.5,251.5C 601.587,294.041 603.087,336.375 611,378.5C 614.262,396.312 618.095,413.978 622.5,431.5 Z"/></g>
<g><path style="opacity:0.959" fill="#b1cbb9" d="M 790.5,251.5 C 807.833,251.5 825.167,251.5 842.5,251.5C 842.5,271.5 842.5,291.5 842.5,311.5C 828.163,311.333 813.829,311.5 799.5,312C 788.81,313.171 778.144,314.171 767.5,315C 780.008,295.648 787.674,274.482 790.5,251.5 Z"/></g>
<g><path style="opacity:0.981" fill="#128180" d="M 798.5,319.5 C 818.503,319.333 838.503,319.5 858.5,320C 868.239,320.137 877.905,320.97 887.5,322.5C 862.21,352.293 834.21,379.126 803.5,403C 769.399,426.859 731.399,437.693 689.5,435.5C 670.405,434.582 651.405,433.915 632.5,433.5C 655.153,401.01 682.153,372.51 713.5,348C 739.052,330.205 767.385,320.705 798.5,319.5 Z"/></g>
<g><path style="opacity:0.995" fill="#b1cab9" d="M 842.5,442.5 C 830.941,428.252 815.941,422.752 797.5,426C 786.391,431.715 782.557,440.549 786,452.5C 789.06,455.952 791.06,459.952 792,464.5C 792.872,475.26 792.206,485.927 790,496.5C 782.235,527.367 770.568,556.701 755,584.5C 706.764,670.764 647.764,749.097 578,819.5C 578.87,809.873 581.203,800.54 585,791.5C 610.283,737.319 630.617,681.319 646,623.5C 656.836,579.814 661.836,535.48 661,490.5C 659.211,471.609 652.045,455.275 639.5,441.5C 665.157,442.555 690.823,442.722 716.5,442C 746.714,440.536 774.381,431.536 799.5,415C 814.047,404.555 828.047,393.388 841.5,381.5C 842.5,401.822 842.833,422.156 842.5,442.5 Z"/></g>
<g><path style="opacity:0.998" fill="#138181" d="M 842.5,442.5 C 848.094,453.797 850.761,465.797 850.5,478.5C 850.067,496.53 847.401,514.196 842.5,531.5C 828.206,571.755 809.373,609.755 786,645.5C 743.257,707.936 695.59,766.602 643,821.5C 626.632,837.701 610.465,854.035 594.5,870.5C 583.223,881.911 569.556,886.077 553.5,883C 535.339,877.84 524.505,866.007 521,847.5C 520.251,817.829 526.751,789.829 540.5,763.5C 571.454,695.461 593.287,624.461 606,550.5C 609.185,533.244 611.851,515.911 614,498.5C 614.667,492.167 614.667,485.833 614,479.5C 613.771,476.542 612.604,474.042 610.5,472C 604.311,471.108 598.311,471.774 592.5,474C 582.927,477.786 573.593,482.12 564.5,487C 524.335,512.583 484.002,537.917 443.5,563C 417.137,578.015 389.47,590.015 360.5,599C 337.232,605.372 313.565,608.372 289.5,608C 260.242,607.546 237.575,595.379 221.5,571.5C 212.219,550.563 212.219,529.563 221.5,508.5C 224.351,502.802 227.851,497.468 232,492.5C 237.074,485.962 243.741,482.296 252,481.5C 270.498,483.314 278.498,493.314 276,511.5C 271.998,520.507 268.998,529.841 267,539.5C 265.963,545.394 266.629,551.061 269,556.5C 272.506,558.668 276.339,559.835 280.5,560C 316.692,561.427 350.692,553.427 382.5,536C 402.833,524.333 423.167,512.667 443.5,501C 464.494,486.834 485.827,473.168 507.5,460C 530.738,446.048 555.405,435.381 581.5,428C 595.455,426.484 609.121,427.65 622.5,431.5C 628.918,433.543 634.585,436.876 639.5,441.5C 652.045,455.275 659.211,471.609 661,490.5C 661.836,535.48 656.836,579.814 646,623.5C 630.617,681.319 610.283,737.319 585,791.5C 581.203,800.54 578.87,809.873 578,819.5C 647.764,749.097 706.764,670.764 755,584.5C 770.568,556.701 782.235,527.367 790,496.5C 792.206,485.927 792.872,475.26 792,464.5C 791.06,459.952 789.06,455.952 786,452.5C 782.557,440.549 786.391,431.715 797.5,426C 815.941,422.752 830.941,428.252 842.5,442.5 Z"/></g>
<g><path style="opacity:0.991" fill="#b1cab9" d="M 540.5,763.5 C 540.855,747.434 540.022,731.434 538,715.5C 527.56,669.111 498.56,645.444 451,644.5C 417.025,644.48 391.692,659.147 375,688.5C 354.144,654.327 323.644,639.827 283.5,645C 268.312,646.061 254.645,651.061 242.5,660C 235.619,667.377 228.952,674.877 222.5,682.5C 221.5,645.506 221.167,608.506 221.5,571.5C 237.575,595.379 260.242,607.546 289.5,608C 313.565,608.372 337.232,605.372 360.5,599C 389.47,590.015 417.137,578.015 443.5,563C 484.002,537.917 524.335,512.583 564.5,487C 573.593,482.12 582.927,477.786 592.5,474C 598.311,471.774 604.311,471.108 610.5,472C 612.604,474.042 613.771,476.542 614,479.5C 614.667,485.833 614.667,492.167 614,498.5C 611.851,515.911 609.185,533.244 606,550.5C 593.287,624.461 571.454,695.461 540.5,763.5 Z"/></g>
<g><path style="opacity:0.993" fill="#b1cab9" d="M 842.5,531.5 C 842.5,644.5 842.5,757.5 842.5,870.5C 759.833,870.5 677.167,870.5 594.5,870.5C 610.465,854.035 626.632,837.701 643,821.5C 695.59,766.602 743.257,707.936 786,645.5C 809.373,609.755 828.206,571.755 842.5,531.5 Z"/></g>
<g><path style="opacity:0.982" fill="#b1cbb9" d="M 290.5,684.5 C 330.188,680.906 351.354,698.906 354,738.5C 354.5,782.499 354.667,826.499 354.5,870.5C 319.5,870.5 284.5,870.5 249.5,870.5C 249.333,827.499 249.5,784.499 250,741.5C 249.253,721.831 256.087,705.331 270.5,692C 276.852,688.386 283.518,685.886 290.5,684.5 Z"/></g>
<g><path style="opacity:0.985" fill="#b1cbb9" d="M 437.5,684.5 C 475.922,682.088 496.422,700.088 499,738.5C 499.5,782.499 499.667,826.499 499.5,870.5C 464.833,870.5 430.167,870.5 395.5,870.5C 395.034,822.137 395.534,773.804 397,725.5C 400.601,711.116 408.101,699.283 419.5,690C 425.435,687.523 431.435,685.69 437.5,684.5 Z"/></g>
</svg>
