<?xml version="1.0" encoding="UTF-8"?>
<svg version="1.1" xmlns="http://www.w3.org/2000/svg" width="256" height="256">
<path d="M0 0 C6.99518622 4.70829841 11.74473046 11.56779576 16.69580078 18.25634766 C18.4331845 20.57914708 20.22207057 22.85978724 22.01025391 25.14355469 C31.1270693 36.82757231 36.35362639 45.62280419 35 61 C33.31154223 70.33162919 27.59094654 76.58957077 21.43701172 83.39355469 C19.18060617 85.91600602 17.02814161 88.51366985 14.875 91.125 C14.15054688 91.99382812 13.42609375 92.86265625 12.6796875 93.7578125 C10.83166277 95.97884733 10.83166277 95.97884733 10 99 C10.65581401 100.99307269 10.65581401 100.99307269 11.80859375 103.0625 C12.22181885 103.85406494 12.63504395 104.64562988 13.06079102 105.46118164 C13.51510498 106.2989917 13.96941895 107.13680176 14.4375 108 C14.89761475 108.85779053 15.35772949 109.71558105 15.83178711 110.59936523 C22.77701229 123.32486438 31.7222312 133.83325648 42 144 C42.76957031 144.76699219 43.53914063 145.53398437 44.33203125 146.32421875 C51.85412884 153.49094165 60.01183833 158.85229625 69 164 C69.60150879 164.34675781 70.20301758 164.69351563 70.82275391 165.05078125 C76.54445184 168.85894508 76.54445184 168.85894508 82.91796875 169.4921875 C85.96608143 167.30761143 88.75933594 164.8588501 91.5625 162.375 C103.25877917 152.22256255 112.613245 144.10619734 128.76171875 144.68359375 C141.19691166 145.8986126 149.43330604 153.57235419 158.77392578 161.20458984 C160.84096045 162.8717288 162.93587773 164.48671763 165.05859375 166.08203125 C173.48001268 172.42586196 181.9453086 179.03032523 184 190 C185.05217238 202.34029337 183.90233314 211.47152719 175.8840332 221.21972656 C173.32946844 224.2151988 170.67164369 227.10923928 168 230 C167.23171875 230.86238281 166.4634375 231.72476563 165.671875 232.61328125 C155.52510827 243.49287002 141.24166437 251.21955622 126.22363281 252.17700195 C111.93283339 252.46693007 98.64438527 252.50769576 85 248 C84.28038086 247.7745752 83.56076172 247.54915039 82.81933594 247.31689453 C64.4112328 241.47059528 46.59816387 232.38725271 31 221 C29.48313767 219.91657601 27.96620406 218.83325179 26.44921875 217.75 C17.46122484 211.27797252 9.03433518 204.6312284 1 197 C-0.2652029 195.91009629 -1.53578407 194.8263944 -2.8125 193.75 C-12.80289655 185.03409848 -21.83510136 175.43381372 -30 165 C-30.62777344 164.25105469 -31.25554688 163.50210938 -31.90234375 162.73046875 C-56.97143384 132.63730744 -74.43272301 95.70427008 -72 56 C-70.09487371 38.78793002 -61.96871632 21.42508293 -48.5625 10.375 C-47.60601562 9.62605469 -46.64953125 8.87710937 -45.6640625 8.10546875 C-43.47733051 6.37724508 -41.46408578 4.59402738 -39.4375 2.6875 C-28.83800792 -6.24493582 -11.82081223 -7.15244798 0 0 Z " fill="#000000" transform="translate(72,4)"/>
<path d="M0 0 C0.88131592 0.01659668 1.76263184 0.03319336 2.6706543 0.05029297 C31.73158776 1.0542776 56.99848459 15.12078415 76.9375 35.625 C93.38140665 54.39890645 102.90580584 78.45987902 103.375 103.375 C103.40190918 104.21699951 103.42881836 105.05899902 103.45654297 105.92651367 C103.42955831 110.21489804 103.20123589 112.04463385 100.5546875 115.5703125 C96.65959295 118.40008205 93.57374841 118.99838894 88.8125 118.5625 C84.66962716 116.52872606 82.54654559 114.79206972 80.8125 110.5625 C80.48120117 108.52636719 80.48120117 108.52636719 80.35546875 106.359375 C80.26918213 105.14834106 80.26918213 105.14834106 80.18115234 103.9128418 C80.12137207 103.054729 80.0615918 102.19661621 80 101.3125 C77.92975575 77.61184663 67.55171596 57.38698564 49.5625 41.75 C34.79968246 30.33760913 18.20636967 24.3191206 -0.36206055 23.36962891 C-5.68773308 23.02997732 -9.00104492 22.17573277 -13.1875 18.5625 C-15.19292966 15.69354256 -15.45390265 13.57548782 -15.125 10.125 C-15.07214844 9.38378906 -15.01929688 8.64257812 -14.96484375 7.87890625 C-12.41069288 0.26779335 -6.98629184 -0.22327256 0 0 Z " fill="#000000" transform="translate(153.1875,-0.5625)"/>
<path d="M0 0 C17.44040996 8.52570227 29.51450517 20.60012486 36.25 39.1875 C41.73096886 58.22556228 41.73096886 58.22556228 37.5 66.6875 C34.8922663 69.58498189 33.0070548 71.06491478 29.06640625 71.33984375 C28.32261719 71.26894531 27.57882813 71.19804688 26.8125 71.125 C26.07128906 71.07214844 25.33007812 71.01929687 24.56640625 70.96484375 C21.0445521 69.78297364 19.51763521 68.11620853 17.25 65.1875 C16.39176583 62.36831105 16.10937934 59.54998152 15.8125 56.625 C14.36323539 45.72516143 10.64288437 35.6687431 2.05859375 28.30859375 C-7.39398775 21.59679371 -16.04905109 18.89716972 -27.5859375 17.97265625 C-31.62315983 16.970827 -33.18587723 15.41708476 -35.75 12.1875 C-36.88781599 9.1725498 -37.04321813 6.39034422 -36.75 3.1875 C-30.03452684 -10.49216756 -11.37419736 -4.81138614 0 0 Z " fill="#000000" transform="translate(174.75,46.8125)"/>
</svg>
